<svg width="22" height="24" viewBox="0 0 22 24" fill="none" xmlns="http://www.w3.org/2000/svg">
<path d="M21.3021 20.0529C22.0521 20.8656 22.0521 22.1298 21.3021 22.9425C20.9271 23.3488 20.4688 23.5294 19.9688 23.5294C19.4688 23.5294 19.0105 23.3488 18.6355 22.9425L11.0105 14.6801L3.38546 22.9425C3.01046 23.3488 2.55214 23.5294 2.05214 23.5294C1.55214 23.5294 1.09383 23.3488 0.718831 22.9425C-0.0311686 22.1298 -0.0311686 20.8656 0.718831 20.0529L8.3438 11.7904L0.718831 3.52802C-0.0311686 2.71532 -0.0311686 1.45112 0.718831 0.638418C1.46883 -0.17428 2.63546 -0.17428 3.38546 0.638418L11.0105 8.90084L18.6355 0.638418C19.3855 -0.17428 20.5521 -0.17428 21.3021 0.638418C22.0521 1.45112 22.0521 2.71532 21.3021 3.52802L13.6771 11.7904L21.3021 20.0529Z" fill="#333333"/>
</svg>
