<svg width="30" height="30" viewBox="0 0 30 30" fill="none" xmlns="http://www.w3.org/2000/svg">
<path d="M15.0001 0C6.71687 0 0 6.8768 0 15.3601C0 22.1466 4.29799 27.9043 10.258 29.9353C11.0077 30.0775 11.2829 29.6021 11.2829 29.1964C11.2829 28.8301 11.269 27.6201 11.2625 26.3367C7.08946 27.2658 6.2089 24.5244 6.2089 24.5244C5.52656 22.749 4.54341 22.2769 4.54341 22.2769C3.18245 21.3235 4.64599 21.3431 4.64599 21.3431C6.15227 21.4515 6.94539 22.926 6.94539 22.926C8.28325 25.2742 10.4545 24.5953 11.3105 24.2029C11.4451 23.2101 11.8338 22.5325 12.2628 22.1489C8.93107 21.7605 5.42869 20.4435 5.42869 14.5579C5.42869 12.8809 6.01466 11.5107 6.97421 10.435C6.81846 10.0481 6.30503 8.48587 7.11952 6.37012C7.11952 6.37012 8.37913 5.9573 11.2456 7.94459C12.4421 7.60427 13.7254 7.43359 15.0001 7.42774C16.2749 7.43359 17.5591 7.60427 18.7579 7.94459C21.6209 5.9573 22.8787 6.37012 22.8787 6.37012C23.6952 8.48587 23.1815 10.0481 23.0258 10.435C23.9876 11.5107 24.5696 12.8809 24.5696 14.5579C24.5696 20.4574 21.0605 21.7565 17.7203 22.1367C18.2583 22.6134 18.7377 23.5481 18.7377 24.9812C18.7377 27.0364 18.7203 28.6905 18.7203 29.1964C18.7203 29.6052 18.9904 30.0841 19.7507 29.9333C25.7075 27.8999 30 22.1443 30 15.3601C30 6.8768 23.2841 0 15.0001 0ZM5.61803 21.8808C5.585 21.9571 5.46775 21.98 5.36094 21.9276C5.25215 21.8775 5.19104 21.7735 5.22631 21.6969C5.25861 21.6183 5.3761 21.5965 5.48465 21.6491C5.59369 21.6992 5.65579 21.8043 5.61803 21.8808ZM6.35587 22.555C6.28434 22.6229 6.14449 22.5914 6.0496 22.484C5.95149 22.3769 5.9331 22.2337 6.00564 22.1648C6.07941 22.0969 6.21503 22.1287 6.3134 22.2358C6.41151 22.3441 6.43064 22.4863 6.35587 22.555ZM6.86206 23.4176C6.77015 23.4829 6.61987 23.4216 6.52697 23.285C6.43507 23.1485 6.43507 22.9846 6.52896 22.919C6.62211 22.8534 6.77015 22.9124 6.8643 23.048C6.95595 23.1869 6.95595 23.3507 6.86206 23.4176ZM7.71813 24.4165C7.63591 24.5094 7.46079 24.4845 7.33262 24.3578C7.20146 24.2339 7.16495 24.0582 7.24742 23.9653C7.33063 23.8722 7.50674 23.8984 7.63591 24.0241C7.76607 24.1477 7.80581 24.3247 7.71813 24.4165ZM8.82451 24.7538C8.78825 24.8741 8.61959 24.9288 8.44968 24.8777C8.28003 24.825 8.169 24.6841 8.20328 24.5625C8.23855 24.4414 8.40795 24.3845 8.5791 24.4391C8.7485 24.4915 8.85979 24.6314 8.82451 24.7538ZM10.0836 24.8968C10.0878 25.0235 9.94378 25.1286 9.76543 25.1308C9.58609 25.1349 9.44103 25.0324 9.43904 24.9078C9.43904 24.7798 9.57988 24.6758 9.75922 24.6727C9.93757 24.6692 10.0836 24.7709 10.0836 24.8968ZM11.3206 24.8483C11.3419 24.9719 11.218 25.0988 11.0409 25.1327C10.8667 25.1652 10.7055 25.0889 10.6834 24.9663C10.6618 24.8396 10.788 24.7127 10.9619 24.6799C11.1392 24.6484 11.298 24.7226 11.3206 24.8483Z" fill="#3F3D56"/>
</svg>
