<svg width="664" height="508" viewBox="0 0 664 508" fill="none" xmlns="http://www.w3.org/2000/svg">
<path opacity="0.1" d="M651.145 137.252C644.575 122.009 635.693 107.867 624.812 95.3261L259.398 91.7276L560.253 49.5126C540.817 41.7823 520.126 37.6825 499.208 37.417C470.429 14.4338 434.991 1.34647 398.168 0.101791C361.344 -1.14289 325.102 9.52162 294.833 30.5089C270.64 18.0793 243.819 11.619 216.615 11.6685C135.423 11.6685 67.771 67.8505 52.5963 142.345L651.145 137.252Z" fill="#DE6B95"/>
<path opacity="0.1" d="M663.994 199.733C664.012 179.53 660.147 159.511 652.609 140.763L19.3048 207.175C12.7972 218.976 7.81843 231.555 4.48831 244.611L200.616 273.814L0 295.11C6.03471 379.446 78.4009 446.04 166.803 446.04C211.303 446.04 251.742 429.165 281.701 401.646C311.755 429.687 352.584 446.932 397.561 446.932C464.301 446.932 521.901 408.969 548.724 354.08C602.54 337.017 644.343 294.174 658.65 240.573L410.637 202.145H663.968C663.981 201.341 663.994 200.537 663.994 199.733Z" fill="#DE6B95"/>
<path opacity="0.1" d="M17.6704 466.206C26.6345 466.206 33.9013 465.208 33.9013 463.976C33.9013 462.745 26.6345 461.747 17.6704 461.747C8.70637 461.747 1.43958 462.745 1.43958 463.976C1.43958 465.208 8.70637 466.206 17.6704 466.206Z" fill="#DE6B95"/>
<path opacity="0.1" d="M79.8467 472.505C88.8108 472.505 96.0776 471.506 96.0776 470.275C96.0776 469.044 88.8108 468.046 79.8467 468.046C70.8826 468.046 63.6158 469.044 63.6158 470.275C63.6158 471.506 70.8826 472.505 79.8467 472.505Z" fill="#DE6B95"/>
<path opacity="0.1" d="M153.087 463.976C162.051 463.976 169.318 462.978 169.318 461.747C169.318 460.516 162.051 459.517 153.087 459.517C144.123 459.517 136.856 460.516 136.856 461.747C136.856 462.978 144.123 463.976 153.087 463.976Z" fill="#DE6B95"/>
<path opacity="0.1" d="M54.9598 489.794C61.3339 489.794 66.5012 489.085 66.5012 488.211C66.5012 487.337 61.3339 486.629 54.9598 486.629C48.5857 486.629 43.4185 487.337 43.4185 488.211C43.4185 489.085 48.5857 489.794 54.9598 489.794Z" fill="#DE6B95"/>
<path opacity="0.1" d="M119.5 488.211C125.874 488.211 131.041 487.503 131.041 486.629C131.041 485.755 125.874 485.046 119.5 485.046C113.126 485.046 107.958 485.755 107.958 486.629C107.958 487.503 113.126 488.211 119.5 488.211Z" fill="#DE6B95"/>
<path d="M80.1987 469.773C80.1987 469.773 57.4303 395.215 83.7567 365.353C103.457 343.008 125.811 345.684 135.825 348.447C138.416 349.137 140.826 350.381 142.888 352.093C144.951 353.805 146.616 355.945 147.769 358.363C151.27 365.899 150.635 378.152 125.924 392.446C84.5487 416.379 81.9777 449.205 81.9777 449.205L80.1987 469.773Z" fill="#DE6B95"/>
<path d="M132.261 359.023C132.261 359.023 65.1497 379.986 80.1987 469.773" stroke="#565987" stroke-miterlimit="10"/>
<path d="M93.0665 366.54C93.0665 366.54 102.307 372.757 99.3526 382.108" stroke="#565987" stroke-miterlimit="10"/>
<path d="M125.528 372.066C125.528 372.066 119.871 366.326 113.006 369.492" stroke="#565987" stroke-miterlimit="10"/>
<path d="M99.0006 400.955C99.0006 400.955 89.0811 395.931 86.5163 402.211" stroke="#565987" stroke-miterlimit="10"/>
<path d="M74.4532 411.43C74.4532 411.43 81.9023 410.84 82.0406 414.401" stroke="#565987" stroke-miterlimit="10"/>
<path d="M79.2935 470.369C79.2935 470.369 105.959 416.178 113.283 417.365C116.759 417.93 118.362 421.347 119.091 424.782C119.995 429.234 119.487 433.857 117.639 438.008C113.867 446.643 103.671 463.128 79.2935 470.369Z" fill="#DE6B95"/>
<path d="M113.063 427.652C113.063 427.652 85.0768 468.197 79.6707 469.974" stroke="#565987" stroke-miterlimit="10"/>
<path d="M115.64 433.976H109.109" stroke="#565987" stroke-miterlimit="10"/>
<path d="M107.814 448.81L97.58 449.249" stroke="#565987" stroke-miterlimit="10"/>
<path d="M101.584 436.947L102.697 442.272" stroke="#565987" stroke-miterlimit="10"/>
<path d="M90.6966 453.162L90.8978 458.004" stroke="#565987" stroke-miterlimit="10"/>
<path d="M80.0667 470.369C80.0667 470.369 53.4009 416.178 46.0775 417.365C42.6013 417.93 40.9983 421.347 40.2691 424.782C39.3725 429.223 39.8822 433.832 41.7275 437.97C45.5055 446.643 55.6702 463.128 80.0667 470.369Z" fill="#DE6B95"/>
<path d="M46.2787 427.652C46.2787 427.652 74.2646 468.197 79.6707 469.974" stroke="#565987" stroke-miterlimit="10"/>
<path d="M43.7076 433.976H50.2389" stroke="#565987" stroke-miterlimit="10"/>
<path d="M51.5276 448.81L61.7677 449.249" stroke="#565987" stroke-miterlimit="10"/>
<path d="M57.7635 436.947L56.6508 442.272" stroke="#565987" stroke-miterlimit="10"/>
<path d="M68.6511 453.162L68.4499 458.004" stroke="#565987" stroke-miterlimit="10"/>
<path d="M125.849 483.024C126.576 482.433 127.106 481.636 127.37 480.738C127.487 480.287 127.445 479.809 127.252 479.385C127.058 478.961 126.725 478.616 126.308 478.408C125.333 478.031 124.29 478.709 123.504 479.388C122.718 480.066 121.807 480.851 120.776 480.707C121.302 480.222 121.694 479.611 121.915 478.931C122.135 478.251 122.176 477.526 122.033 476.825C121.99 476.535 121.868 476.261 121.681 476.034C121.14 475.456 120.16 475.708 119.512 476.16C117.45 477.604 116.878 480.399 116.866 482.917C116.753 481.994 116.74 481.061 116.828 480.135C116.828 479.206 116.564 478.169 115.778 477.673C115.292 477.406 114.742 477.276 114.188 477.296C113.258 477.296 112.233 477.353 111.598 478.031C110.812 478.873 111.013 480.279 111.699 481.209C112.463 482.07 113.369 482.794 114.377 483.351C115.132 483.811 115.776 484.433 116.262 485.172C116.319 485.276 116.365 485.385 116.401 485.498H122.203C123.526 484.845 124.753 484.012 125.849 483.024Z" fill="#DE6B95"/>
<path d="M24.2457 461.2C24.9733 460.611 25.504 459.813 25.7669 458.914C25.8829 458.462 25.8407 457.984 25.6475 457.559C25.4543 457.135 25.1216 456.788 24.7045 456.578C23.7302 456.208 22.693 456.886 21.9009 457.564C21.1089 458.243 20.2099 459.021 19.1727 458.877C19.7005 458.394 20.0938 457.782 20.3141 457.102C20.5345 456.422 20.5744 455.696 20.43 454.996C20.3828 454.707 20.2591 454.436 20.0717 454.211C19.531 453.633 18.5504 453.878 17.9029 454.336C15.8411 455.781 15.269 458.575 15.2565 461.094C15.1432 460.168 15.1306 459.233 15.2187 458.305C15.2187 457.376 14.961 456.346 14.1752 455.85C13.6867 455.583 13.135 455.453 12.5786 455.473C11.6545 455.435 10.6236 455.529 9.98866 456.208C9.2029 457.049 9.41034 458.456 10.0892 459.348C10.8526 460.214 11.7609 460.941 12.7734 461.496C13.5311 461.953 14.1757 462.576 14.6593 463.317C14.7161 463.422 14.7645 463.531 14.8039 463.643H20.606C21.9245 462.998 23.1489 462.176 24.2457 461.2Z" fill="#DE6B95"/>
<path d="M58.1092 483.024C58.8363 482.433 59.3668 481.636 59.6305 480.738C59.7472 480.287 59.7054 479.809 59.5121 479.385C59.3187 478.961 58.9855 478.616 58.5681 478.408C57.5937 478.031 56.5503 478.709 55.7645 479.388C54.9787 480.066 54.0672 480.851 53.0363 480.707C53.5625 480.222 53.9547 479.611 54.175 478.931C54.3953 478.251 54.4361 477.526 54.2935 476.825C54.2502 476.535 54.1285 476.261 53.9415 476.034C53.4009 475.456 52.4202 475.708 51.7728 476.16C49.7109 477.604 49.1389 480.399 49.1263 482.917C49.0131 481.994 49.0004 481.061 49.0886 480.135C49.0886 479.206 48.8308 478.169 48.0451 477.673C47.5563 477.407 47.0048 477.277 46.4484 477.296C45.5243 477.296 44.4934 477.353 43.8585 478.031C43.0727 478.873 43.2739 480.279 43.9591 481.209C44.7234 482.07 45.629 482.794 46.637 483.351C47.3928 483.811 48.0369 484.433 48.5228 485.172C48.5791 485.276 48.6254 485.385 48.6611 485.498H54.4632C55.7864 484.845 57.0133 484.012 58.1092 483.024Z" fill="#DE6B95"/>
<path d="M154.143 438.906C154.143 438.906 156.318 441.751 153.137 446.04C149.956 450.33 147.341 453.953 148.397 456.629C148.397 456.629 153.194 448.659 157.097 448.546C161.001 448.433 158.436 443.698 154.143 438.906Z" fill="#DE6B95"/>
<path opacity="0.1" d="M154.143 438.906C154.332 439.181 154.482 439.481 154.589 439.798C158.398 444.269 160.423 448.439 156.764 448.546C153.351 448.646 149.265 454.738 148.284 456.277C148.315 456.396 148.353 456.509 148.397 456.629C148.397 456.629 153.194 448.659 157.097 448.546C161.001 448.433 158.436 443.698 154.143 438.906Z" fill="black"/>
<path d="M158.185 442.53C158.185 443.528 158.072 444.338 157.933 444.338C157.795 444.338 157.682 443.528 157.682 442.53C157.682 441.531 157.826 442.002 157.965 442.002C158.103 442.002 158.185 441.531 158.185 442.53Z" fill="#FFD037"/>
<path d="M159.574 443.723C158.694 444.2 157.927 444.489 157.864 444.351C157.801 444.213 158.455 443.723 159.335 443.264C160.215 442.806 159.863 443.133 159.932 443.264C160.001 443.396 160.454 443.246 159.574 443.723Z" fill="#FFD037"/>
<path d="M142.652 438.906C142.652 438.906 140.477 441.751 143.657 446.04C146.838 450.33 149.46 453.953 148.397 456.629C148.397 456.629 143.601 448.659 139.697 448.546C135.793 448.433 138.383 443.698 142.652 438.906Z" fill="#DE6B95"/>
<path opacity="0.1" d="M142.652 438.906C142.463 439.181 142.315 439.481 142.212 439.798C138.402 444.269 136.372 448.439 140.03 448.546C143.444 448.646 147.536 454.738 148.517 456.277C148.479 456.396 148.441 456.509 148.397 456.629C148.397 456.629 143.601 448.659 139.697 448.546C135.793 448.433 138.383 443.698 142.652 438.906Z" fill="black"/>
<path d="M138.61 442.53C138.61 443.528 138.723 444.338 138.861 444.338C138.999 444.338 139.113 443.528 139.113 442.53C139.113 441.531 138.974 442.002 138.836 442.002C138.698 442.002 138.61 441.531 138.61 442.53Z" fill="#FFD037"/>
<path d="M137.22 443.723C138.1 444.2 138.867 444.489 138.937 444.351C139.006 444.213 138.339 443.723 137.466 443.264C136.592 442.806 136.931 443.133 136.837 443.264C136.743 443.396 136.347 443.246 137.22 443.723Z" fill="#FFD037"/>
<path d="M139.301 456.252C139.301 456.252 145.386 456.07 147.215 454.763C149.045 453.457 156.569 451.9 157.028 453.991C157.487 456.082 166.162 464.391 159.297 464.447C152.433 464.504 143.349 463.38 141.52 462.268C139.691 461.156 139.301 456.252 139.301 456.252Z" fill="#A8A8A8"/>
<path opacity="0.2" d="M159.423 463.719C152.559 463.775 143.469 462.651 141.64 461.54C140.244 460.692 139.691 457.652 139.509 456.245H139.301C139.301 456.245 139.691 461.15 141.52 462.262C143.349 463.373 152.433 464.498 159.297 464.441C161.284 464.441 161.963 463.719 161.925 462.676C161.642 463.317 160.894 463.706 159.423 463.719Z" fill="black"/>
<path opacity="0.1" d="M384.958 508C499.324 508 592.036 503.799 592.036 498.617C592.036 493.436 499.324 489.235 384.958 489.235C270.591 489.235 177.879 493.436 177.879 498.617C177.879 503.799 270.591 508 384.958 508Z" fill="#DE6B95"/>
<path d="M363.861 218.103C363.861 218.103 377.062 243.054 378.087 246.615C378.354 247.603 378.929 248.481 379.729 249.12C380.53 249.759 381.514 250.127 382.538 250.169C382.538 250.169 395.688 253.309 398.831 253.73C401.974 254.151 429.218 256.449 429.218 256.449C429.218 256.449 436.133 256.663 436.969 254.151C437.736 251.852 451.094 239.776 458.826 250.314C459.539 251.288 460.012 252.417 460.206 253.609C460.401 254.8 460.311 256.021 459.945 257.171C458.525 261.693 455.608 268.871 452.477 264.406C448.077 258.126 442.96 259.891 442.96 263.238C442.96 266.585 435.92 265.342 433.619 265.813C432.362 266.07 428.037 267.22 424.296 268.225C419.955 269.397 415.508 270.135 411.02 270.429C403.596 270.912 392.652 271.314 388.773 269.851C384.09 268.074 375.924 267.666 372.429 267.571C371.272 267.543 370.154 267.143 369.242 266.428C364.391 262.635 360.288 257.973 357.141 252.681C351.691 243.261 340.483 223.755 341.238 218.103C341.992 212.451 363.861 218.103 363.861 218.103Z" fill="#EFB7B9"/>
<path opacity="0.05" d="M363.861 218.103C363.861 218.103 377.062 243.054 378.087 246.615C378.354 247.603 378.929 248.481 379.729 249.12C380.53 249.759 381.514 250.127 382.538 250.169C382.538 250.169 395.688 253.309 398.831 253.73C401.974 254.151 429.218 256.449 429.218 256.449C429.218 256.449 436.133 256.663 436.969 254.151C437.736 251.852 451.094 239.776 458.826 250.314C459.539 251.288 460.012 252.417 460.206 253.609C460.401 254.8 460.311 256.021 459.945 257.171C458.525 261.693 455.608 268.871 452.477 264.406C448.077 258.126 442.96 259.891 442.96 263.238C442.96 266.585 435.92 265.342 433.619 265.813C432.362 266.07 428.037 267.22 424.296 268.225C419.955 269.397 415.508 270.135 411.02 270.429C403.596 270.912 392.652 271.314 388.773 269.851C384.09 268.074 375.924 267.666 372.429 267.571C371.272 267.543 370.154 267.143 369.242 266.428C364.391 262.635 360.288 257.973 357.141 252.681C351.691 243.261 340.483 223.755 341.238 218.103C341.992 212.451 363.861 218.103 363.861 218.103Z" fill="black"/>
<path d="M566.728 451.824C566.705 465.169 561.528 477.99 552.278 487.616C543.027 497.242 530.415 502.932 517.07 503.498C503.724 504.065 490.675 499.465 480.64 490.658C470.605 481.851 464.358 469.515 463.201 456.22C463.126 455.379 463.069 454.537 463.044 453.708V453.664C463.019 453.04 463.007 452.412 463.007 451.78C463.007 438.039 468.47 424.861 478.196 415.144C487.922 405.428 501.113 399.969 514.867 399.969C528.622 399.969 541.813 405.428 551.538 415.144C561.264 424.861 566.728 438.039 566.728 451.78V451.824Z" fill="#65617D"/>
<path d="M514.867 480.053C530.49 480.053 543.155 467.401 543.155 451.793C543.155 436.185 530.49 423.532 514.867 423.532C499.244 423.532 486.58 436.185 486.58 451.793C486.58 467.401 499.244 480.053 514.867 480.053Z" fill="#DCE0ED"/>
<path d="M514.867 468.749C524.241 468.749 531.84 461.157 531.84 451.793C531.84 442.428 524.241 434.836 514.867 434.836C505.494 434.836 497.895 442.428 497.895 451.793C497.895 461.157 505.494 468.749 514.867 468.749Z" fill="#65617D"/>
<path d="M378.672 353.402L253.791 355.914V337.526C254.91 322.723 270.135 317.53 283.964 315.903C294.777 314.677 305.723 315.497 316.231 318.321C342.727 325.33 359.606 326.686 367.922 326.818C369.748 326.845 371.508 327.502 372.905 328.676C374.302 329.85 375.251 331.469 375.591 333.262C375.987 335.365 376.377 337.658 376.742 339.918C377.018 341.689 377.282 343.435 377.521 345.062C378.213 349.747 378.672 353.402 378.672 353.402Z" fill="#65617D"/>
<path d="M478.301 455.14H218.878C216.875 455.161 214.91 454.592 213.228 453.506C211.546 452.419 210.22 450.863 209.417 449.03C207.462 444.363 210.196 441.387 213.113 439.641C219.082 436.106 223.607 430.576 225.887 424.028C228.653 415.864 231.356 403.09 232.418 383.132C233.512 362.489 240.992 352.284 249.076 347.335C259.518 340.955 270.965 343.347 270.965 343.347L376.151 344.189C378.023 345.037 379.755 346.166 381.287 347.536C390.659 356.253 376.993 367.633 376.993 367.633C347.656 398.613 369.865 430.013 369.865 430.013H423.687C433.743 430.065 443.576 427.058 451.88 421.391C459.153 416.367 461.938 411.512 463.057 408.573C463.887 406.325 464.729 404.083 465.735 401.91C479.853 371.319 462.824 321.555 455.476 302.947C453.653 298.319 452.427 295.618 452.427 295.618L469.305 294.362L479.992 293.552H480.099C503.621 334.084 512.365 375.734 515.301 406.595C515.578 409.502 515.804 412.322 515.986 415.029C516.319 420.175 515.591 425.335 513.847 430.189C512.104 435.043 509.381 439.487 505.848 443.247C502.316 447.007 498.048 450.003 493.309 452.049C488.571 454.094 483.463 455.147 478.301 455.14Z" fill="#DE6B95"/>
<path opacity="0.1" d="M377.527 345.062H253.791V339.919H376.748C377.025 341.658 377.289 343.404 377.527 345.062Z" fill="black"/>
<path opacity="0.1" d="M381.293 347.574H250.076C249.734 347.575 249.397 347.507 249.083 347.373C259.524 340.992 270.971 343.385 270.971 343.385L376.157 344.227C378.029 345.075 379.761 346.204 381.293 347.574Z" fill="black"/>
<path d="M382.387 341.143H204.162C202.742 341.143 201.591 342.293 201.591 343.712V343.718C201.591 345.137 202.742 346.287 204.162 346.287H382.387C383.807 346.287 384.958 345.137 384.958 343.718V343.712C384.958 342.293 383.807 341.143 382.387 341.143Z" fill="#DCE0ED"/>
<path opacity="0.1" d="M515.301 406.607C509.323 413.101 504.923 415.657 505.13 408.805C505.759 388.081 469.299 294.381 469.299 294.381L480.08 293.565C503.609 334.065 512.359 375.715 515.301 406.607Z" fill="black"/>
<path opacity="0.1" d="M566.414 446.116C560.222 447.598 552.584 449.105 543.155 450.512C539.647 451.027 535.876 451.521 531.84 451.994C522.203 453.137 511.058 454.135 498.184 454.902C494.538 455.119 490.752 455.318 486.825 455.498C479.47 455.833 471.598 456.088 463.208 456.264L463.051 453.752V453.708C474.774 448.979 493.224 436.363 496.191 403.499C503.6 400.646 511.566 399.53 519.475 400.238C527.383 400.945 535.024 403.456 541.809 407.578C548.593 411.7 554.34 417.322 558.607 424.012C562.874 430.702 565.547 438.281 566.42 446.166L566.414 446.116Z" fill="black"/>
<path d="M453.269 455.14C453.269 455.14 512.799 448.684 492.294 358.068C492.294 358.068 521.707 385.01 540.006 399.982C558.305 414.954 590.924 435.596 590.924 435.596C590.924 435.596 571.449 453.777 453.269 455.14Z" fill="#DE6B95"/>
<path opacity="0.1" d="M453.269 455.14C453.269 455.14 512.799 448.684 492.294 358.068C492.294 358.068 521.707 385.01 540.006 399.982C558.305 414.954 590.924 435.596 590.924 435.596C590.924 435.596 571.449 453.777 453.269 455.14Z" fill="white"/>
<path d="M294.23 503.604C322.872 503.604 346.09 480.407 346.09 451.793C346.09 423.178 322.872 399.982 294.23 399.982C265.588 399.982 242.369 423.178 242.369 451.793C242.369 480.407 265.588 503.604 294.23 503.604Z" fill="#65617D"/>
<path d="M294.23 480.053C309.853 480.053 322.517 467.401 322.517 451.793C322.517 436.185 309.853 423.532 294.23 423.532C278.607 423.532 265.942 436.185 265.942 451.793C265.942 467.401 278.607 480.053 294.23 480.053Z" fill="#DCE0ED"/>
<path d="M294.23 468.749C303.603 468.749 311.202 461.157 311.202 451.793C311.202 442.428 303.603 434.836 294.23 434.836C284.856 434.836 277.257 442.428 277.257 451.793C277.257 461.157 284.856 468.749 294.23 468.749Z" fill="#65617D"/>
<path opacity="0.1" d="M352.377 436.231C352.377 402.776 325.78 375.652 292.972 375.652C260.165 375.652 233.568 402.776 233.568 436.231C233.568 437.646 233.616 439.046 233.713 440.432H352.232C352.328 439.046 352.377 437.646 352.377 436.231Z" fill="black"/>
<path d="M350.176 435.188C350.176 402.971 324.567 376.852 292.972 376.852C261.378 376.852 235.768 402.971 235.768 435.188C235.768 436.551 235.819 437.895 235.907 439.233H350.038C350.126 437.895 350.176 436.551 350.176 435.188Z" fill="#DE6B95"/>
<path opacity="0.1" d="M350.176 435.188C350.176 436.124 350.176 437.072 350.107 437.977C350.107 438.397 350.063 438.812 350.038 439.233H235.907C235.907 438.812 235.856 438.397 235.838 437.977C235.794 437.053 235.768 436.092 235.768 435.188C235.768 402.971 261.378 376.852 292.972 376.852C324.567 376.852 350.176 402.971 350.176 435.188Z" fill="white"/>
<path opacity="0.1" d="M350.107 438.008C350.107 438.429 350.063 438.843 350.038 439.264H235.907C235.907 438.843 235.856 438.429 235.838 438.008H350.107Z" fill="black"/>
<path opacity="0.1" d="M357.72 440.489H217.451C213.746 440.489 210.743 443.487 210.743 447.186C210.743 450.885 213.746 453.884 217.451 453.884H357.72C361.424 453.884 364.427 450.885 364.427 447.186C364.427 443.487 361.424 440.489 357.72 440.489Z" fill="black"/>
<path d="M357.72 439.233H217.451C213.746 439.233 210.743 442.231 210.743 445.93C210.743 449.629 213.746 452.628 217.451 452.628H357.72C361.424 452.628 364.427 449.629 364.427 445.93C364.427 442.231 361.424 439.233 357.72 439.233Z" fill="#DCE0ED"/>
<path opacity="0.1" d="M505.07 351.866C508.86 350.154 508.435 341.039 504.121 331.507C499.807 321.976 493.238 315.636 489.448 317.348C485.658 319.06 486.083 328.175 490.397 337.707C494.711 347.238 501.28 353.578 505.07 351.866Z" fill="black"/>
<path d="M505.698 351.236C509.488 349.524 509.063 340.409 504.749 330.877C500.435 321.346 493.866 315.006 490.076 316.718C486.286 318.43 486.711 327.545 491.025 337.077C495.339 346.608 501.908 352.948 505.698 351.236Z" fill="#DCE0ED"/>
<path opacity="0.1" d="M479.985 293.565V303.406H460.813C459.027 303.408 457.244 303.265 455.482 302.979C453.659 298.35 452.433 295.65 452.433 295.65L469.312 294.394L479.985 293.565Z" fill="black"/>
<path d="M479.985 302.125H460.813C443.972 302.125 430.325 289.564 430.325 274.008V271.402C430.325 255.878 443.972 243.292 460.813 243.292L479.985 245.032V302.125Z" fill="#DE6B95"/>
<path d="M448.398 259.935C448.398 259.935 459.87 266.058 453.269 276.42C453.269 276.42 445.173 289.684 432.443 288.428L427.81 259.935C427.81 259.935 443.054 258.522 448.398 259.935Z" fill="#DE6B95"/>
<path opacity="0.1" d="M443.991 259.382C445.815 259.451 447.6 259.928 449.214 260.778C450.829 261.628 452.232 262.829 453.32 264.293C455.363 267.119 456.582 271.239 453.282 276.42C453.282 276.42 445.185 289.684 432.456 288.428L427.823 259.935C427.823 259.935 437.359 259.024 443.991 259.382Z" fill="black"/>
<path opacity="0.1" d="M479.357 245.032H483.053C486.157 245.032 489.135 246.264 491.33 248.457C493.525 250.65 494.758 253.624 494.758 256.726V290.437C494.758 293.539 493.525 296.513 491.33 298.706C489.135 300.899 486.157 302.131 483.053 302.131H479.357V245.032Z" fill="black"/>
<path d="M479.985 245.032H483.682C486.786 245.032 489.763 246.264 491.958 248.457C494.153 250.65 495.387 253.624 495.387 256.726V290.437C495.387 293.539 494.153 296.513 491.958 298.706C489.763 300.899 486.786 302.131 483.682 302.131H479.985V245.032Z" fill="#DCE0ED"/>
<path d="M343.865 318.359C343.865 318.359 346.826 319.439 350.78 320.946C357.066 323.364 365.929 326.894 369.01 328.828C372.09 330.762 383.575 333.94 392.174 336.176C398.549 337.825 405.114 338.634 411.699 338.581C418.387 338.518 426.49 338.455 428.728 338.455C429.12 338.452 429.511 338.481 429.897 338.543C432.248 338.933 432.154 340.509 432.098 340.886V340.967C418.268 349.339 401.503 386.812 400.459 393.092C399.674 397.802 392.765 410.859 389.358 417.101C388.214 419.193 387.472 420.518 387.472 420.518L391.665 425.328L403.816 430.773L415.339 435.797C415.339 435.797 427.496 436.425 427.704 435.797C427.911 435.169 427.911 428.682 427.911 428.682C426.431 427.728 425.028 426.661 423.712 425.492C420.924 423.066 418.334 420.422 415.967 417.585C409.266 409.628 422.675 394.348 422.675 394.348L448.448 360.856C448.448 360.856 450.541 357.088 460.599 342.016C470.657 326.944 460.599 318.78 460.599 318.78L442.897 311.438C412.196 299.958 375.164 290.758 375.164 290.758L374.636 290.689L366.784 289.709L343.865 318.359Z" fill="#EFB7B9"/>
<path d="M422.964 430.773C422.964 430.773 425.164 433.367 423.517 433.599C421.87 433.832 417.545 432.896 417.545 432.896L390.119 418.452C390.119 418.452 387.133 416.329 386.429 420.493C385.725 424.656 385.247 424.261 385.247 424.261C385.247 424.261 381.632 432.029 385.247 433.637C388.861 435.245 410.574 441.606 410.574 441.606C410.574 441.606 442.086 448.753 445.072 440.507C448.058 432.262 439.729 433.681 439.729 433.681C439.729 433.681 429.357 431.169 425.818 426.145C425.793 426.145 420.688 427.558 422.964 430.773Z" fill="#444053"/>
<path opacity="0.05" d="M460.574 318.78L442.872 311.438C412.17 299.958 375.139 290.758 375.139 290.758L374.611 290.689L366.759 289.709L343.865 318.359C343.865 318.359 346.826 319.439 350.78 320.946C357.066 323.364 365.929 326.894 369.01 328.828C372.09 330.762 383.575 333.94 392.174 336.176C398.549 337.825 405.113 338.634 411.699 338.581C418.387 338.518 426.49 338.455 428.728 338.455C429.12 338.452 429.511 338.481 429.897 338.543C432.248 338.933 432.154 340.509 432.098 340.886V340.967C418.268 349.339 401.503 386.812 400.459 393.092C399.674 397.802 392.765 410.859 389.358 417.101L388.899 417.943C387.988 417.792 386.85 418.119 386.447 420.493C385.737 424.65 385.266 424.261 385.266 424.261C385.266 424.261 381.651 432.029 385.266 433.637C388.88 435.245 410.574 441.606 410.574 441.606C410.574 441.606 442.086 448.753 445.072 440.507C448.058 432.262 439.729 433.681 439.729 433.681C439.729 433.681 429.357 431.169 425.818 426.145C425.504 426.236 425.197 426.349 424.9 426.484C424.529 426.182 424.133 425.856 423.712 425.492C420.924 423.066 418.334 420.422 415.967 417.585C409.266 409.628 422.675 394.348 422.675 394.348L448.448 360.856C448.448 360.856 450.541 357.088 460.599 342.016C470.657 326.944 460.574 318.78 460.574 318.78Z" fill="black"/>
<path d="M322.756 178.299L323.712 179.505L324.246 180.177L327.578 184.366C327.578 184.366 335.53 186.916 342.501 188.567C349.762 190.282 355.953 191.029 351.031 186.928C347.976 184.385 347.775 180.127 348.888 175.561C349.825 172.048 351.166 168.655 352.886 165.45C353.133 164.973 353.378 164.508 353.621 164.056C355.183 161.171 356.912 158.38 358.801 155.697C354.332 152.605 349.696 149.76 344.915 147.175C339.157 144.198 334.43 142.898 337.428 148.789C339.352 152.557 338.723 156.79 336.925 160.84C336.787 161.161 336.636 161.469 336.479 161.801C334.865 164.94 332.872 167.87 330.545 170.524C328.16 173.319 325.556 175.919 322.756 178.299Z" fill="#EFB7B9"/>
<path d="M362.573 273.965L366.835 277.852L370.952 293.678H364.081L356.494 283.818L362.573 273.965Z" fill="#444053"/>
<path opacity="0.1" d="M356.494 283.818L361.083 289.778L364.081 293.678H370.952L370.248 290.971L367.25 279.441L366.835 277.852L362.573 273.965L356.752 283.397L356.494 283.818Z" fill="black"/>
<path opacity="0.1" d="M356.494 283.818L361.083 289.778L364.081 293.678H370.952L370.248 290.971L367.25 279.441L366.835 277.852L362.573 273.965L356.752 283.397L356.494 283.818Z" fill="black"/>
<path d="M333.656 325.462C333.656 325.462 336.617 326.542 340.571 328.049C346.857 330.467 355.721 333.996 358.801 335.931C361.881 337.865 373.366 341.043 381.965 343.278C388.34 344.93 394.905 345.741 401.49 345.69C408.179 345.627 416.282 345.564 418.519 345.564C418.911 345.561 419.302 345.591 419.689 345.652C422.04 346.042 421.945 347.618 421.889 347.995V348.076C408.059 356.448 391.294 393.921 390.251 400.201C389.465 404.912 382.556 417.968 379.149 424.21C378.005 426.302 377.263 427.627 377.263 427.627L381.456 432.437L393.601 437.876L405.124 442.9C405.124 442.9 417.281 443.528 417.489 442.9C417.696 442.272 417.696 435.785 417.696 435.785C416.216 434.83 414.813 433.764 413.497 432.594C410.709 430.169 408.119 427.525 405.752 424.688C399.051 416.731 412.46 401.451 412.46 401.451L438.233 367.959C438.233 367.959 440.326 364.191 450.384 349.119C460.442 334.047 450.384 325.882 450.384 325.882L434.254 316.669C409.109 301.39 373.693 292.598 373.693 292.598L373.165 292.529L365.313 291.549L333.656 325.462Z" fill="#EFB7B9"/>
<path opacity="0.1" d="M377.257 427.621L381.45 432.431L393.601 437.876L405.124 442.9C405.124 442.9 417.281 443.528 417.489 442.9C417.696 442.272 417.696 435.785 417.696 435.785C416.216 434.831 414.813 433.764 413.497 432.594C412.196 433.292 410.718 434.598 412.145 436.62C412.145 436.62 414.345 439.207 412.698 439.446C411.052 439.685 406.727 438.743 406.727 438.743L379.3 424.298L379.143 424.192C377.986 426.295 377.257 427.621 377.257 427.621Z" fill="black"/>
<path d="M412.755 437.876C412.755 437.876 414.955 440.463 413.302 440.702C411.649 440.941 407.33 439.992 407.33 439.992L379.91 425.548C379.91 425.548 376.924 423.432 376.214 427.589C375.503 431.747 375.038 431.357 375.038 431.357C375.038 431.357 371.424 439.132 375.038 440.74C378.653 442.347 400.34 448.684 400.34 448.684C400.34 448.684 431.846 455.825 434.832 447.585C437.818 439.346 429.489 440.752 429.489 440.752C429.489 440.752 419.117 438.24 415.584 433.216C415.603 433.241 410.473 434.654 412.755 437.876Z" fill="#444053"/>
<path opacity="0.1" d="M335.328 159.245C338.962 161.757 344.506 165.733 349.24 165.733C350.461 165.732 351.68 165.636 352.886 165.444C354.636 162.064 356.613 158.806 358.801 155.691C358.801 155.691 331.142 136.43 337.428 148.783C339.503 152.89 337.459 154.906 335.328 159.245Z" fill="black"/>
<path d="M326.61 141.868C326.607 145.639 327.549 149.35 329.351 152.663C331.153 155.976 333.757 158.785 336.925 160.834C337.636 161.298 338.375 161.717 339.138 162.09C343.543 164.286 348.544 164.986 353.383 164.086C358.223 163.185 362.636 160.733 365.955 157.1C369.273 153.468 371.316 148.854 371.772 143.957C372.229 139.06 371.075 134.148 368.486 129.966C365.896 125.784 362.012 122.559 357.423 120.781C352.833 119.002 347.788 118.768 343.053 120.112C338.318 121.456 334.151 124.307 331.184 128.23C328.216 132.154 326.61 136.938 326.61 141.856V141.868Z" fill="#EFB7B9"/>
<path opacity="0.1" d="M333.656 325.462C333.656 325.462 336.617 326.542 340.571 328.049C343.054 325.864 345.6 323.753 346.662 323.37C348.969 322.529 356.513 318.133 356.305 316.877C356.098 315.621 359.448 310.81 362.378 309.969C365.307 309.127 363.635 304.737 363.635 304.737C363.635 304.737 369.293 302.646 370.701 299.713C372.109 296.78 376.421 293.012 374.95 293.226C374.312 293.122 373.704 292.885 373.165 292.529L365.313 291.549L333.656 325.462Z" fill="black"/>
<path d="M316.47 317.926C316.47 317.926 326.113 325.882 326.559 329.437C327.006 332.992 333.443 332.791 333.443 332.791C333.443 332.791 343.086 323.578 345.386 322.742C347.687 321.907 355.237 317.505 355.029 316.249C354.822 314.993 358.172 310.182 361.102 309.341C364.031 308.499 362.359 304.109 362.359 304.109C362.359 304.109 368.016 302.018 369.425 299.085C370.833 296.152 375.145 292.384 373.674 292.598C373.259 292.654 371.933 291.97 370.248 290.971C368.18 289.715 365.559 288.013 363.421 286.575C361.158 285.043 359.43 283.824 359.43 283.824C359.43 283.824 358.443 283.649 356.752 283.404C347.63 282.085 317.922 278.719 311.026 289.684C310.107 291.133 309.418 292.715 308.983 294.375C305.897 306.056 316.47 317.926 316.47 317.926Z" fill="#444053"/>
<path opacity="0.1" d="M326.553 292.541C326.553 292.541 316.709 298.093 313.038 298.093C309.367 298.093 326.553 292.541 326.553 292.541Z" fill="black"/>
<path opacity="0.1" d="M333.128 296.78C333.128 296.78 318.469 301.704 318.469 305.572C318.469 309.441 317.099 295.21 333.128 296.78Z" fill="black"/>
<path opacity="0.1" d="M368.224 274.605L368.017 274.888C368.111 274.815 368.183 274.717 368.224 274.605Z" fill="black"/>
<path opacity="0.1" d="M322.756 178.299L323.712 179.505L324.246 180.177L327.578 184.366C327.578 184.366 335.53 186.916 342.501 188.567C349.762 190.282 355.953 191.029 351.031 186.928C347.976 184.385 347.775 180.127 348.888 175.561L348.668 175.279C348.668 175.279 348.888 179.511 346.38 179.593C342.998 179.7 342.954 178.563 339.836 177.251C335.819 175.555 331.701 172.723 330.545 170.518C328.161 173.315 325.556 175.917 322.756 178.299Z" fill="black"/>
<path opacity="0.1" d="M308.983 294.356C310.698 295.089 312.629 295.134 314.377 294.482C320.87 292.384 331.142 287.335 335.957 289.546C339.817 291.317 355.362 291.266 361.102 289.778C362.529 289.407 363.346 288.949 363.22 288.409C363.139 287.787 363.215 287.154 363.44 286.569C364.107 284.44 365.917 281.482 367.268 279.441L366.854 277.852L362.592 273.965L356.771 283.385C347.649 282.066 317.941 278.7 311.045 289.665C310.119 291.113 309.424 292.695 308.983 294.356Z" fill="black"/>
<path d="M304.74 289.458C304.74 289.458 307.255 295.317 313.748 293.226C320.242 291.134 330.513 286.079 335.329 288.29C340.144 290.5 363.201 289.872 362.573 287.153C361.944 284.434 368.23 275.849 368.23 275.849C368.23 275.849 364.798 275.221 362.673 264.023C362.359 262.39 362.076 260.531 361.837 258.421C361.318 254.1 361.196 249.74 361.473 245.396C362.321 233.276 366.571 228.327 366.571 228.327C366.571 228.327 372.436 221.632 367.407 212.419C364.773 207.59 354.143 194.207 353.998 188.241C353.866 182.827 348.687 176.535 348.687 176.535C348.687 176.535 348.907 180.767 346.398 180.849C343.017 180.956 342.973 179.819 339.855 178.506C335.272 176.572 330.564 173.162 330.256 170.882C330.256 170.882 311.045 169.922 306.852 189.39C302.659 208.858 304.13 219.535 304.759 221.839C305.388 224.144 310.831 253.868 306.431 266.428C302.031 278.989 304.74 289.458 304.74 289.458Z" fill="#A36468"/>
<path opacity="0.1" d="M336.064 255.256C339.529 261.096 344.164 266.157 349.68 270.121C353.358 270.152 357.031 270.397 360.681 270.856C360.366 269.223 360.052 267.364 359.845 265.254C359.325 260.933 359.203 256.573 359.48 252.229C358.876 251.927 358.344 251.499 357.919 250.975C357.495 250.451 357.186 249.842 357.016 249.189C355.966 245.629 346.618 228.672 346.618 228.672C346.618 228.672 324.749 223.02 323.988 228.672C323.228 234.324 330.614 245.836 336.064 255.256Z" fill="black"/>
<path d="M343.312 218.103C343.312 218.103 356.513 243.054 357.537 246.615C357.804 247.603 358.38 248.481 359.18 249.12C359.98 249.759 360.964 250.127 361.988 250.169C361.988 250.169 375.139 253.309 378.282 253.73C381.425 254.151 408.688 256.449 408.688 256.449C408.688 256.449 415.603 256.663 416.439 254.151C417.206 251.852 430.564 239.776 438.296 250.314C439.009 251.288 439.481 252.417 439.676 253.609C439.87 254.8 439.781 256.021 439.415 257.171C437.994 261.693 435.077 268.871 431.947 264.406C427.546 258.126 422.429 259.891 422.429 263.238C422.429 266.585 415.389 265.342 413.088 265.813C411.831 266.07 407.506 267.22 403.766 268.225C399.414 269.399 394.956 270.137 390.458 270.429C383.034 270.912 372.09 271.314 368.211 269.851C363.534 268.074 355.369 267.666 351.867 267.571C350.709 267.543 349.592 267.143 348.68 266.428C343.831 262.634 339.73 257.972 336.586 252.681C331.136 243.261 319.927 223.755 320.682 218.103C321.436 212.451 343.312 218.103 343.312 218.103Z" fill="#EFB7B9"/>
<path opacity="0.1" d="M338.912 183.531C338.912 183.531 345.984 195.256 349.259 203.627C352.534 211.998 356.513 226.656 356.513 226.656L336.812 224.351L335.14 221.632C335.14 221.632 321.072 230.424 322.75 234.192C324.428 237.961 318.978 228.54 319.399 217.864C319.821 207.188 317.885 188.134 319.399 183.531C320.914 178.927 334.279 179.97 338.912 183.531Z" fill="black"/>
<path d="M319.425 216.608C319.003 227.284 324.453 236.705 322.775 232.936C321.097 229.168 335.165 220.376 335.165 220.376L336.818 223.095L356.513 225.4C356.513 225.4 352.534 210.742 349.259 202.371C347.291 197.635 345.041 193.021 342.52 188.555C340.502 184.893 338.912 182.275 338.912 182.275C336.202 180.183 330.45 178.959 325.862 179.248C325.146 179.288 324.435 179.374 323.731 179.505C321.845 179.876 320.323 180.592 319.651 181.722C319.548 181.897 319.464 182.082 319.399 182.275C317.891 186.878 319.827 205.932 319.425 216.608Z" fill="#A36468"/>
<path opacity="0.1" d="M310.624 245.836C310.624 245.836 318.953 257.297 321.468 257.611C321.449 257.636 310.762 255.256 310.624 245.836Z" fill="black"/>
<path opacity="0.1" d="M310.624 262.164C310.624 262.164 326.339 278.022 331.368 278.179C336.397 278.336 310.624 262.164 310.624 262.164Z" fill="black"/>
<path opacity="0.1" d="M310.624 268.783C310.624 268.783 320.682 280.559 321.31 280.559C321.939 280.559 310.448 276.477 310.624 268.783Z" fill="black"/>
<path opacity="0.1" d="M319.632 181.722C321.249 181.481 322.811 180.958 324.246 180.177C324.787 179.894 325.321 179.58 325.843 179.248C327.904 177.869 329.824 176.292 331.576 174.537C334.467 171.73 337.353 168.666 338.547 164.816C338.816 163.929 339.013 163.021 339.138 162.103C339.855 157.273 339.251 151.942 342.708 148.657C343.358 148.044 344.103 147.542 344.915 147.169C349.818 144.839 356.928 146.346 360.586 142.145C362.912 139.482 362.856 135.783 364.641 132.888C365.42 131.632 366.854 130.545 368.123 129.39C366.274 126.577 363.82 124.212 360.939 122.468C358.059 120.724 354.825 119.644 351.474 119.307C348.122 118.971 344.738 119.386 341.568 120.522C338.397 121.658 335.521 123.487 333.148 125.875C330.775 128.264 328.966 131.151 327.852 134.327C326.738 137.502 326.348 140.886 326.71 144.232C327.072 147.577 328.177 150.8 329.944 153.665C331.711 156.529 334.096 158.964 336.925 160.79C336.787 161.111 336.636 161.418 336.479 161.751C332.16 170.543 322.756 178.255 322.756 178.255L323.712 179.461C321.807 179.894 320.305 180.592 319.632 181.722Z" fill="black"/>
<path d="M359.329 141.529C355.073 146.402 346.128 143.564 341.445 148.029C337.334 151.942 338.968 158.768 337.29 164.188C336.095 168.038 333.21 171.096 330.318 173.909C326.107 178.004 320.72 182.162 314.961 180.987C311.548 180.29 308.204 177.74 304.904 178.915C303.263 179.505 302.087 180.924 300.862 182.174C296.698 186.413 291.286 189.21 285.417 190.156C284.256 190.418 283.046 190.361 281.915 189.993C280.155 189.277 279.206 187.355 277.603 186.332C274.46 184.322 270.424 186.382 267.161 188.178C258.037 193.113 247.966 196.051 237.617 196.795C227.268 197.539 216.879 196.072 207.141 192.492L212.227 189.98C211.146 187.776 208.223 187.292 206.362 185.678C202.527 182.356 204.784 175.712 208.839 172.666C212.893 169.62 218.142 168.559 222.341 165.714C223.196 165.136 224.064 164.37 224.145 163.346C224.132 162.594 223.893 161.864 223.46 161.249C221.222 157.311 218.746 153.085 219.248 148.582C220.015 141.674 227.565 137.428 234.499 136.945C241.432 136.461 248.297 138.546 255.243 138.665C257.757 138.709 260.391 138.464 262.547 137.164C265.559 135.356 267.074 131.908 268.903 128.912C272.168 123.593 276.847 119.284 282.418 116.465C288.704 113.294 295.82 112.182 302.358 109.557C309.034 106.882 315.106 102.649 322.09 100.947C332.229 98.4348 343.092 101.719 351.849 107.397C356.067 110.128 369.538 118.895 369.45 124.504C369.381 127.832 365.049 129.635 363.409 132.247C361.598 135.167 361.655 138.866 359.329 141.529Z" fill="#965D7B"/>
<g opacity="0.1">
<path opacity="0.1" d="M222.844 158.102C223.274 158.719 223.512 159.449 223.529 160.2C223.504 160.465 223.43 160.723 223.309 160.96C221.461 157.707 219.538 154.259 219.23 150.629C220.047 153.223 221.486 155.716 222.844 158.102Z" fill="black"/>
<path opacity="0.1" d="M205.746 182.532C207.6 184.146 210.523 184.63 211.611 186.834L209.813 187.726C208.602 187.157 207.45 186.469 206.374 185.672C205.693 185.065 205.161 184.309 204.821 183.462C204.48 182.616 204.341 181.702 204.413 180.792C204.734 181.457 205.187 182.049 205.746 182.532Z" fill="black"/>
<path opacity="0.1" d="M266.545 185.038C269.808 183.242 273.85 181.182 276.987 183.192C278.583 184.215 279.539 186.137 281.299 186.853C282.428 187.221 283.636 187.278 284.794 187.016C290.665 186.07 296.079 183.273 300.246 179.034C301.465 177.778 302.641 176.365 304.287 175.775C307.569 174.6 310.913 177.15 314.345 177.847C320.103 179.021 325.484 174.864 329.702 170.769C332.594 167.962 335.473 164.897 336.667 161.048C338.352 155.628 336.718 148.801 340.829 144.889C345.525 140.424 354.451 143.262 358.713 138.389C361.033 135.726 360.982 132.027 362.768 129.132C364.276 126.689 368.186 124.956 368.739 122.01C369.171 122.779 369.411 123.641 369.437 124.522C369.368 127.851 365.037 129.653 363.396 132.266C361.611 135.161 361.661 138.86 359.342 141.523C355.08 146.396 346.141 143.558 341.458 148.023C337.346 151.935 338.981 158.762 337.296 164.182C336.102 168.031 333.223 171.09 330.331 173.903C326.113 177.998 320.732 182.155 314.974 180.981C311.554 180.284 308.21 177.734 304.916 178.908C303.269 179.499 302.094 180.918 300.874 182.168C296.708 186.407 291.294 189.204 285.423 190.15C284.264 190.411 283.057 190.355 281.928 189.987C280.168 189.271 279.212 187.349 277.615 186.325C274.472 184.316 270.437 186.376 267.174 188.172C258.05 193.107 247.978 196.045 237.629 196.789C227.28 197.533 216.891 196.066 207.154 192.486L210.668 190.746C219.899 193.517 229.588 194.439 239.177 193.46C248.766 192.48 258.066 189.618 266.545 185.038Z" fill="black"/>
</g>
<path opacity="0.1" d="M421.889 347.988L427.175 345.432V344.434C427.175 344.051 422.957 344.899 419.689 345.621C422.04 346.035 421.945 347.612 421.889 347.988Z" fill="black"/>
<path d="M426.484 290.236C433.518 290.236 439.22 283.305 439.22 274.756C439.22 266.206 433.518 259.275 426.484 259.275C419.45 259.275 413.748 266.206 413.748 274.756C413.748 283.305 419.45 290.236 426.484 290.236Z" fill="#DE6B95"/>
<path d="M303.904 254.609L283.43 274.781L216.124 273.607L234.631 254.609H303.904Z" fill="#DDA2A6"/>
<path d="M303.904 323.615V254.609L283.43 274.781V342.305L303.904 323.615Z" fill="#B77B7F"/>
<path d="M216.124 273.607V342.305H283.43V274.781L216.124 273.607Z" fill="#DDA2A6"/>
<path opacity="0.3" d="M216.124 273.607V342.305H283.43V274.781L216.124 273.607Z" fill="white"/>
<path d="M277.961 293.69L227.904 285.105L221.379 317.938L272.913 327.396L277.961 293.69Z" fill="#DCE0ED"/>
<path d="M268.073 301.358L234.423 296.077L233.581 300.46L267.231 306.163L268.073 301.358Z" fill="#DE6B95"/>
<path d="M258.82 310.735L239.678 307.959L238.836 312.826L258.82 315.627V310.735Z" fill="#DE6B95"/>
<path d="M295.625 290.827L294.714 263.659L289.452 268.846L290.37 296.077L295.625 290.827Z" fill="#65617D"/>
<path d="M227.86 261.561L292.539 262.434L294.714 263.659L289.452 268.846L287.635 267.779L223.573 265.964L227.86 261.561Z" fill="#65617D"/>
</svg>
