<svg width="52" height="48" viewBox="0 0 52 48" fill="none" xmlns="http://www.w3.org/2000/svg">
<g clip-path="url(#clip0)">
<path d="M49.8862 2.11456H2.11382V45.8855H49.8862V2.11456Z" stroke="#F1EEEE" stroke-width="10"/>
<path d="M43.9263 40.1011C42.55 41.2848 41.0088 42.1935 39.3023 42.8268C37.5958 43.4601 35.8274 43.7766 33.997 43.7766C32.5932 43.7766 31.2378 43.5907 29.9304 43.2192C28.6368 42.8612 27.4188 42.3518 26.2767 41.691C25.1481 41.0165 24.116 40.2111 23.1802 39.275C22.2444 38.3389 21.4392 37.3063 20.765 36.1776C20.1044 35.0349 19.5884 33.8165 19.2168 32.5226C18.859 31.2148 18.6801 29.8587 18.6801 28.4545C18.6801 27.0504 18.859 25.6944 19.2168 24.3865C19.5884 23.0787 20.1044 21.8605 20.765 20.7315C21.4392 19.5889 22.2444 18.5495 23.1802 17.6134C24.116 16.6773 25.1481 15.8788 26.2767 15.218C27.4188 14.5435 28.6368 14.0272 29.9304 13.6693C31.2378 13.2976 32.5932 13.1118 33.997 13.1118C35.8274 13.1118 37.5958 13.4284 39.3023 14.0616C41.0088 14.6811 42.55 15.5897 43.9263 16.7874L40.7885 21.9499C39.9214 21.0137 38.8962 20.2979 37.7127 19.8023C36.5292 19.2929 35.2907 19.0383 33.997 19.0383C32.6896 19.0383 31.4649 19.286 30.3226 19.7816C29.1805 20.2772 28.1827 20.9518 27.3294 21.8053C26.4762 22.645 25.8017 23.643 25.3065 24.7995C24.811 25.9422 24.5632 27.1606 24.5632 28.4545C24.5632 29.7486 24.811 30.9669 25.3065 32.1096C25.8017 33.2384 26.4762 34.2297 27.3294 35.0831C28.1827 35.9367 29.1805 36.6113 30.3226 37.1067C31.4649 37.6024 32.6896 37.8502 33.997 37.8502C35.2907 37.8502 36.5292 37.6024 37.7127 37.1067C38.8962 36.5975 39.9214 35.8748 40.7885 34.9385L43.9263 40.1011Z" fill="#F1EEEE"/>
<path d="M34.6667 31.7181C36.4178 31.7181 37.8374 30.298 37.8374 28.5463C37.8374 26.7945 36.4178 25.3745 34.6667 25.3745C32.9155 25.3745 31.4959 26.7945 31.4959 28.5463C31.4959 30.298 32.9155 31.7181 34.6667 31.7181Z" fill="#DE6B95"/>
</g>
<defs>
<clipPath id="clip0">
<rect width="52" height="48" fill="white"/>
</clipPath>
</defs>
</svg>
