<svg width="30" height="30" viewBox="0 0 30 30" fill="none" xmlns="http://www.w3.org/2000/svg">
<g clip-path="url(#clip0)">
<path d="M30.0375 6.26249C28.9289 6.75467 27.7406 7.08514 26.4914 7.23514C27.7664 6.47108 28.7461 5.26171 29.2055 3.82264C28.0148 4.52811 26.6906 5.04139 25.2867 5.31796C24.1617 4.11796 22.5586 3.3703 20.7844 3.3703C17.3766 3.3703 14.6133 6.13124 14.6133 9.53905C14.6133 10.0219 14.6695 10.493 14.775 10.9453C9.64688 10.6875 5.10234 8.23124 2.05781 4.49764C1.52578 5.41171 1.22344 6.47108 1.22344 7.60077C1.22344 9.74061 2.31094 11.6297 3.96797 12.7383C2.95547 12.7055 2.00391 12.4265 1.17188 11.9648C1.17188 11.9906 1.17188 12.0164 1.17188 12.0422C1.17188 15.0328 3.3 17.5242 6.11953 18.0937C5.60391 18.2344 5.05781 18.3094 4.49531 18.3094C4.09688 18.3094 3.71016 18.2719 3.33281 18.1969C4.12031 20.6461 6.39844 22.4344 9.09609 22.4836C6.98672 24.1383 4.32656 25.1226 1.43438 25.1226C0.935156 25.1226 0.445313 25.0945 -0.0351562 25.0359C2.69297 26.789 5.93672 27.8086 9.42188 27.8086C20.7703 27.8086 26.9766 18.4078 26.9766 10.2562C26.9766 9.98905 26.9695 9.71952 26.9602 9.45702C28.1648 8.58749 29.2102 7.49999 30.0375 6.26249Z" fill="#3F3D56"/>
</g>
<defs>
<clipPath id="clip0">
<rect width="30" height="30" fill="white"/>
</clipPath>
</defs>
</svg>
